<svg width="13" height="15" viewBox="0 0 13 15" fill="blue" xmlns="http://www.w3.org/2000/svg">
    <path d="M7.11115 0.75C7.11115 0.551088 7.03486 0.360322 6.89905 0.21967C6.76325 0.0790176 6.57906 0 6.38701 0C6.19496 0 6.01077 0.0790176 5.87497 0.21967C5.73917 0.360322 5.66287 0.551088 5.66287 0.75V1.4715L5.18929 1.212C5.10522 1.16596 5.01323 1.13751 4.91855 1.12829C4.82387 1.11907 4.72836 1.12925 4.63749 1.15826C4.54661 1.18727 4.46214 1.23453 4.38889 1.29735C4.31565 1.36016 4.25507 1.43731 4.21062 1.52437C4.16616 1.61144 4.13869 1.70672 4.12979 1.80478C4.12089 1.90284 4.13072 2.00176 4.15873 2.09588C4.18673 2.19001 4.23237 2.2775 4.29302 2.35335C4.35367 2.42921 4.42815 2.49196 4.51222 2.538L5.66287 3.168V4.5945C5.15306 4.73099 4.68887 5.00897 4.32032 5.3985L3.12694 4.6845L3.17546 3.3375C3.18257 3.13869 3.11313 2.94509 2.98242 2.79931C2.85171 2.65352 2.67043 2.56748 2.47848 2.56012C2.28652 2.55277 2.0996 2.62468 1.95884 2.76006C1.81808 2.89544 1.73501 3.08319 1.72791 3.282L1.70836 3.83625L1.10515 3.47625C1.02272 3.42343 0.930883 3.38829 0.835093 3.37291C0.739304 3.35753 0.641508 3.36223 0.547503 3.38672C0.453499 3.41121 0.365199 3.45501 0.287838 3.5155C0.210478 3.57599 0.145631 3.65196 0.0971419 3.73889C0.0486531 3.82582 0.0175092 3.92195 0.00555666 4.02158C-0.00639584 4.12121 0.00108634 4.22231 0.0275594 4.31889C0.0540325 4.41547 0.0989577 4.50556 0.159672 4.58382C0.220386 4.66208 0.295654 4.72692 0.381012 4.7745L0.984219 5.13525L0.530184 5.43075C0.371822 5.53855 0.260568 5.70634 0.220298 5.89813C0.180028 6.08992 0.213951 6.29041 0.314787 6.45659C0.415623 6.62277 0.575337 6.74138 0.759654 6.78698C0.94397 6.83258 1.1382 6.80154 1.30067 6.7005L2.4028 5.9835L3.59546 6.69675C3.45456 7.22231 3.45456 7.77769 3.59546 8.30325L2.4028 9.01575L1.30067 8.2995C1.1382 8.19846 0.94397 8.16742 0.759654 8.21302C0.575337 8.25862 0.415623 8.37723 0.314787 8.54341C0.213951 8.70959 0.180028 8.91008 0.220298 9.10187C0.260568 9.29366 0.371822 9.46145 0.530184 9.56925L0.984219 9.86475L0.381012 10.2248C0.298612 10.274 0.226384 10.3396 0.168452 10.4177C0.11052 10.4959 0.0680187 10.5851 0.0433743 10.6803C0.01873 10.7754 0.0124254 10.8747 0.0248205 10.9724C0.0372157 11.0701 0.0680678 11.1643 0.115615 11.2496C0.163163 11.335 0.226475 11.4098 0.301936 11.4698C0.377398 11.5298 0.46353 11.5738 0.555417 11.5993C0.647304 11.6248 0.743145 11.6314 0.837468 11.6185C0.931792 11.6057 1.02275 11.5737 1.10515 11.5245L1.70763 11.1637L1.72791 11.7188C1.73147 11.8172 1.75373 11.9139 1.79339 12.0035C1.83306 12.093 1.88937 12.1736 1.9591 12.2406C2.02883 12.3076 2.11062 12.3597 2.1998 12.394C2.28897 12.4282 2.38379 12.4439 2.47884 12.4403C2.57389 12.4366 2.6673 12.4135 2.75375 12.3724C2.8402 12.3313 2.91799 12.273 2.98267 12.2008C3.04736 12.1286 3.09768 12.0439 3.13076 11.9515C3.16384 11.8591 3.17903 11.7609 3.17546 11.6625L3.12694 10.3155L4.32032 9.6015C4.68876 9.99118 5.15299 10.2692 5.66287 10.4055V11.832L4.51222 12.462C4.34244 12.555 4.21529 12.714 4.15873 12.9041C4.10217 13.0942 4.12083 13.2998 4.21062 13.4756C4.3004 13.6515 4.45395 13.7832 4.63749 13.8417C4.82102 13.9003 5.01951 13.881 5.18929 13.788L5.66287 13.5285V14.25C5.66287 14.4489 5.73917 14.6397 5.87497 14.7803C6.01077 14.921 6.19496 15 6.38701 15C6.57906 15 6.76325 14.921 6.89905 14.7803C7.03486 14.6397 7.11115 14.4489 7.11115 14.25V13.5285L7.58474 13.788C7.75451 13.881 7.953 13.9003 8.13654 13.8417C8.32007 13.7832 8.47362 13.6515 8.56341 13.4756C8.65319 13.2998 8.67186 13.0942 8.6153 12.9041C8.55873 12.714 8.43158 12.555 8.2618 12.462L7.11115 11.832V10.4055C7.62088 10.2692 8.08506 9.9915 8.4537 9.60225L9.64708 10.3155L9.59856 11.6625C9.595 11.7609 9.61019 11.8591 9.64327 11.9515C9.67634 12.0439 9.72666 12.1286 9.79135 12.2008C9.85604 12.273 9.93383 12.3313 10.0203 12.3724C10.1067 12.4135 10.2001 12.4366 10.2952 12.4403C10.3902 12.4439 10.4851 12.4282 10.5742 12.394C10.6634 12.3597 10.7452 12.3076 10.8149 12.2406C10.8847 12.1736 10.941 12.093 10.9806 12.0035C11.0203 11.9139 11.0425 11.8172 11.0461 11.7188L11.0657 11.1637L11.6689 11.5245C11.7513 11.5745 11.8424 11.6072 11.937 11.6206C12.0316 11.634 12.1279 11.6279 12.2202 11.6026C12.3125 11.5773 12.3991 11.5333 12.475 11.4733C12.5508 11.4132 12.6145 11.3382 12.6622 11.2525C12.71 11.1668 12.7409 11.0722 12.7532 10.9742C12.7655 10.8761 12.759 10.7764 12.7339 10.681C12.7089 10.5855 12.6659 10.4961 12.6074 10.418C12.5489 10.3398 12.476 10.2744 12.393 10.2255L11.7905 9.8655L12.2438 9.57C12.4065 9.46418 12.5219 9.29576 12.5647 9.1018C12.6075 8.90784 12.5741 8.70423 12.4719 8.53575C12.3698 8.36727 12.2072 8.24773 12.0199 8.20342C11.8326 8.15912 11.636 8.19368 11.4734 8.2995L10.3712 9.0165L9.17856 8.304C9.31956 7.7782 9.31956 7.22255 9.17856 6.69675L10.3712 5.9835L11.4734 6.7005C11.636 6.80632 11.8326 6.84088 12.0199 6.79658C12.2072 6.75227 12.3698 6.63273 12.4719 6.46425C12.5741 6.29577 12.6075 6.09216 12.5647 5.8982C12.5219 5.70424 12.4065 5.53582 12.2438 5.43L11.7898 5.13525L12.393 4.7745C12.476 4.72561 12.5489 4.6602 12.6074 4.58203C12.6659 4.50386 12.7089 4.41447 12.7339 4.31902C12.759 4.22356 12.7655 4.12393 12.7532 4.02584C12.7409 3.92776 12.71 3.83316 12.6622 3.7475C12.6145 3.66185 12.5508 3.58682 12.475 3.52674C12.3991 3.46665 12.3125 3.42271 12.2202 3.39743C12.1279 3.37214 12.0316 3.36603 11.937 3.37943C11.8424 3.39283 11.7513 3.42548 11.6689 3.4755L11.0657 3.8355L11.0461 3.28125C11.0425 3.18281 11.0203 3.08606 10.9806 2.99652C10.941 2.90699 10.8847 2.82642 10.8149 2.75942C10.7452 2.69243 10.6634 2.64031 10.5742 2.60605C10.4851 2.57179 10.3902 2.55606 10.2952 2.55975C10.2001 2.56344 10.1067 2.58649 10.0203 2.62757C9.93383 2.66866 9.85604 2.72698 9.79135 2.7992C9.72666 2.87142 9.67634 2.95613 9.64327 3.04849C9.61019 3.14085 9.595 3.23906 9.59856 3.3375L9.64708 4.6845L8.4537 5.39775C8.08506 5.0085 7.62088 4.73078 7.11115 4.5945V3.168L8.2618 2.538C8.43158 2.44501 8.55873 2.28597 8.6153 2.09588C8.67186 1.90579 8.65319 1.70021 8.56341 1.52437C8.47362 1.34854 8.32007 1.21684 8.13654 1.15826C7.953 1.09968 7.75451 1.11901 7.58474 1.212L7.11115 1.4715V0.75Z" fill="blue" fill-opacity="1"/>
</svg>
