<svg width="16" height="16" viewBox="0 0 16 16" fill="red" xmlns="http://www.w3.org/2000/svg">
<path d="M12.7059 4.69689C12.7059 6.0011 12.2353 7.74004 9.97647 8.43561C10.6353 6.95751 10.7294 5.47942 10.2588 4.08826C9.6 2.26238 7.43529 0.871225 5.92941 0.0887024C5.55294 -0.172139 4.89412 0.175649 4.98824 0.697331C4.98824 1.65375 4.70588 3.0449 3.10588 4.523C1.03529 6.43583 0 8.43561 0 10.3484C0 12.8699 1.88235 16 5.64706 16C1.88235 12.5221 4.70588 9.47898 4.70588 9.47898C5.45882 14.6088 9.41176 16 11.2941 16C12.8941 16 16 14.9566 16 10.4354C16 7.74004 14.7765 5.65331 13.7412 4.43605C13.4588 4.00132 12.8 4.26216 12.7059 4.69689Z" fill="red" fill-opacity="1"/>
</svg>
