<svg width="200" height="200" viewBox="0 0 200 200" fill="none" xmlns="http://www.w3.org/2000/svg">
<path d="M150 164.583C150.001 169.334 148.198 173.909 144.955 177.381C141.713 180.854 137.273 182.967 132.533 183.292L131.25 183.333H68.75C63.9989 183.334 59.4248 181.531 55.9521 178.289C52.4793 175.046 50.3669 170.607 50.0417 165.867L50 164.583V35.4167C49.9994 30.6656 51.8025 26.0915 55.0447 22.6187C58.287 19.146 62.7268 17.0335 67.4667 16.7084L68.75 16.6667H131.25C136.001 16.6661 140.575 18.4691 144.048 21.7114C147.521 24.9537 149.633 29.3934 149.958 34.1334L150 35.4167V164.583ZM158.333 41.6667H164.583C169.334 41.6661 173.909 43.4691 177.381 46.7114C180.854 49.9537 182.966 54.3934 183.292 59.1334L183.333 60.4167V139.583C183.334 144.334 181.531 148.909 178.289 152.381C175.046 155.854 170.607 157.967 165.867 158.292L164.583 158.333H158.333V41.6667ZM41.6667 158.333H35.4167C30.6656 158.334 26.0915 156.531 22.6187 153.289C19.1459 150.046 17.0335 145.607 16.7083 140.867L16.6667 139.583V60.4167C16.6661 55.6656 18.4691 51.0915 21.7114 47.6187C24.9537 44.146 29.3934 42.0335 34.1333 41.7084L35.4167 41.6667H41.6667V158.333Z" fill="#A40953"/>
</svg>
